<svg width="24" height="24" viewBox="0 0 24 24" fill="none" xmlns="http://www.w3.org/2000/svg">
<mask id="mask0_331_1142" style="mask-type:alpha" maskUnits="userSpaceOnUse" x="0" y="0" width="24" height="24">
<rect width="24" height="24" fill="#D9D9D9"/>
</mask>
<g mask="url(#mask0_331_1142)">
<path d="M8.00143 20.75C6.68766 20.75 5.56732 20.2868 4.64041 19.3606C3.71349 18.4343 3.25003 17.3141 3.25003 16V6.12305C3.25003 5.31922 3.51221 4.63942 4.03656 4.08365C4.56092 3.52788 5.22181 3.25 6.01923 3.25C6.81666 3.25 7.47115 3.50737 7.98268 4.0221C8.49421 4.53685 8.74998 5.19614 8.74998 5.99998C8.74998 6.77304 8.48331 7.42464 7.94998 7.95478C7.41666 8.48489 6.76667 8.74995 6.00001 8.74995H4.74998V16C4.74998 16.9028 5.06606 17.6701 5.69823 18.3021C6.3304 18.934 7.09803 19.25 8.00113 19.25C8.90423 19.25 9.67149 18.934 10.3029 18.3021C10.9343 17.6701 11.25 16.9028 11.25 16V7.99998C11.25 6.68581 11.713 5.56561 12.639 4.63938C13.5649 3.71313 14.6848 3.25 15.9986 3.25C17.3123 3.25 18.4327 3.71313 19.3596 4.63938C20.2865 5.56561 20.75 6.68581 20.75 7.99998V18C20.75 18.773 20.4628 19.4246 19.8885 19.9548C19.3141 20.4849 18.6436 20.75 17.8769 20.75C17.1103 20.75 16.4808 20.4833 15.9885 19.95C15.4962 19.4166 15.25 18.765 15.25 17.9952C15.25 17.2253 15.5167 16.5753 16.05 16.0452C16.5833 15.5151 17.2333 15.25 18 15.25H19.25V7.99998C19.25 7.09719 18.9339 6.32983 18.3018 5.69788C17.6696 5.06593 16.902 4.74995 15.9989 4.74995C15.0958 4.74995 14.3285 5.06593 13.6971 5.69788C13.0657 6.32983 12.75 7.09719 12.75 7.99998V16C12.75 17.3141 12.287 18.4343 11.361 19.3606C10.4351 20.2868 9.3152 20.75 8.00143 20.75ZM4.74998 7.25H6.00001C6.34744 7.25 6.64264 7.12853 6.88561 6.88558C7.12856 6.64261 7.25003 6.34741 7.25003 5.99998C7.25003 5.65254 7.12856 5.35734 6.88561 5.11438C6.64264 4.87143 6.34744 4.74995 6.00001 4.74995C5.65257 4.74995 5.35737 4.87143 5.11441 5.11438C4.87146 5.35734 4.74998 5.65254 4.74998 5.99998V7.25ZM18 19.25C18.3474 19.25 18.6426 19.1285 18.8856 18.8856C19.1286 18.6426 19.25 18.3474 19.25 18V16.75H18C17.6526 16.75 17.3574 16.8714 17.1144 17.1144C16.8715 17.3573 16.75 17.6525 16.75 18C16.75 18.3474 16.8715 18.6426 17.1144 18.8856C17.3574 19.1285 17.6526 19.25 18 19.25Z" fill="#1C1B1F"/>
</g>
</svg>
