<svg width="24" height="24" viewBox="0 0 24 24" fill="none" xmlns="http://www.w3.org/2000/svg">
<mask id="mask0_331_1130" style="mask-type:alpha" maskUnits="userSpaceOnUse" x="0" y="0" width="24" height="24">
<rect width="24" height="24" fill="#D9D9D9"/>
</mask>
<g mask="url(#mask0_331_1130)">
<path d="M6.73076 20.5H5.30773C4.8026 20.5 4.37503 20.325 4.02503 19.975C3.67503 19.625 3.50003 19.1974 3.50003 18.6923V12C3.50003 10.8205 3.72311 9.71537 4.16928 8.6846C4.61543 7.65383 5.22183 6.75512 5.98848 5.98845C6.75515 5.2218 7.65386 4.6154 8.68463 4.16925C9.7154 3.72308 10.8205 3.5 12 3.5C13.1795 3.5 14.2846 3.72308 15.3154 4.16925C16.3461 4.6154 17.2449 5.2218 18.0115 5.98845C18.7782 6.75512 19.3846 7.65383 19.8307 8.6846C20.2769 9.71537 20.5 10.8205 20.5 12V18.6923C20.5 19.1974 20.325 19.625 19.975 19.975C19.625 20.325 19.1974 20.5 18.6923 20.5H17.2693C16.7705 20.5 16.3446 20.3233 15.9914 19.9701C15.6382 19.6169 15.4616 19.191 15.4616 18.6923V15.2308C15.4616 14.7321 15.6382 14.3061 15.9914 13.9529C16.3446 13.5997 16.7705 13.4231 17.2693 13.4231H19V12C19 10.05 18.3208 8.39581 16.9625 7.03748C15.6042 5.67914 13.95 4.99998 12 4.99998C10.05 4.99998 8.39584 5.67914 7.03751 7.03748C5.67917 8.39581 5.00001 10.05 5.00001 12V13.4231H6.73076C7.22947 13.4231 7.65543 13.5997 8.00863 13.9529C8.36183 14.3061 8.53843 14.7321 8.53843 15.2308V18.6923C8.53843 19.191 8.36183 19.6169 8.00863 19.9701C7.65543 20.3233 7.22947 20.5 6.73076 20.5ZM6.73076 14.9231H5.00001V18.6923C5.00001 18.7692 5.03206 18.8397 5.09616 18.9038C5.16027 18.9679 5.2308 19 5.30773 19H6.73076C6.82051 19 6.89423 18.9711 6.95193 18.9134C7.00963 18.8557 7.03848 18.782 7.03848 18.6923V15.2308C7.03848 15.141 7.00963 15.0673 6.95193 15.0096C6.89423 14.9519 6.82051 14.9231 6.73076 14.9231ZM16.9615 15.2308V18.6923C16.9615 18.782 16.9904 18.8557 17.0481 18.9134C17.1058 18.9711 17.1795 19 17.2693 19H18.6923C18.7692 19 18.8397 18.9679 18.9039 18.9038C18.968 18.8397 19 18.7692 19 18.6923V14.9231H17.2693C17.1795 14.9231 17.1058 14.9519 17.0481 15.0096C16.9904 15.0673 16.9615 15.141 16.9615 15.2308ZM6.73076 14.9231H7.03848H5.00001H6.73076Z" fill="#1C1B1F"/>
</g>
</svg>
