<svg width="25" height="25" viewBox="0 0 25 25" fill="none" xmlns="http://www.w3.org/2000/svg">
<mask id="mask0_331_1166" style="mask-type:alpha" maskUnits="userSpaceOnUse" x="0" y="0" width="25" height="25">
<rect x="0.5" y="0.75" width="24" height="24" fill="#D9D9D9"/>
</mask>
<g mask="url(#mask0_331_1166)">
<path d="M8.37503 7.49615L11.0789 3.94808C11.2583 3.70789 11.4715 3.5315 11.7183 3.4189C11.9651 3.3063 12.2257 3.25 12.5 3.25C12.7744 3.25 13.0349 3.3063 13.2817 3.4189C13.5285 3.5315 13.7417 3.70789 13.9212 3.94808L16.625 7.49615L20.7596 8.8923C21.1545 9.01923 21.4625 9.24314 21.6836 9.56403C21.9048 9.88493 22.0154 10.2394 22.0154 10.6275C22.0154 10.8066 21.9892 10.9851 21.9368 11.1632C21.8845 11.3412 21.7985 11.5118 21.6788 11.675L18.9865 15.4115L19.0865 19.3769C19.1032 19.9034 18.9296 20.3473 18.5659 20.7083C18.2021 21.0694 17.7782 21.25 17.2942 21.25C17.2801 21.25 17.1128 21.2282 16.7923 21.1846L12.5 19.9538L8.20771 21.1846C8.12437 21.2179 8.03836 21.2371 7.94968 21.2423C7.861 21.2474 7.7797 21.25 7.70578 21.25C7.21733 21.25 6.79234 21.0694 6.43081 20.7083C6.06927 20.3473 5.89684 19.9034 5.91351 19.3769L6.01351 15.3865L3.33658 11.675C3.21691 11.5111 3.13091 11.3399 3.07856 11.1612C3.02621 10.9824 3.00003 10.8037 3.00003 10.625C3.00003 10.2479 3.10988 9.89714 3.32958 9.57283C3.54928 9.24849 3.8561 9.01845 4.25003 8.8827L8.37503 7.49615ZM9.30193 8.78843L4.73078 10.3115C4.63463 10.3436 4.56892 10.4093 4.53366 10.5086C4.49841 10.608 4.51283 10.6994 4.57693 10.7827L7.52308 14.9404L7.41346 19.4077C7.40706 19.5166 7.44552 19.6032 7.52886 19.6673C7.61219 19.7314 7.70515 19.7474 7.80773 19.7154L12.5 18.3981L17.1923 19.7404C17.2949 19.7724 17.3878 19.7564 17.4712 19.6923C17.5545 19.6282 17.593 19.5416 17.5866 19.4327L17.4769 14.9404L20.4231 10.8327C20.4872 10.7494 20.5016 10.658 20.4664 10.5586C20.4311 10.4593 20.3654 10.3936 20.2692 10.3615L15.6981 8.78843L12.7404 4.8846C12.6827 4.80127 12.6026 4.7596 12.5 4.7596C12.3974 4.7596 12.3173 4.80127 12.2596 4.8846L9.30193 8.78843Z" fill="#1C1B1F"/>
</g>
</svg>
