<svg width="25" height="25" viewBox="0 0 25 25" fill="none" xmlns="http://www.w3.org/2000/svg">
<mask id="mask0_338_8876" style="mask-type:alpha" maskUnits="userSpaceOnUse" x="0" y="0" width="25" height="25">
<rect x="0.458008" y="0.466248" width="24" height="24" fill="#D9D9D9"/>
</mask>
<g mask="url(#mask0_338_8876)">
<path d="M5.76571 20.9662C5.26057 20.9662 4.83301 20.7912 4.48301 20.4412C4.13301 20.0912 3.95801 19.6636 3.95801 19.1585V5.77395C3.95801 5.26882 4.13301 4.84125 4.48301 4.49125C4.83301 4.14125 5.26057 3.96625 5.76571 3.96625H11.7176C11.9304 3.96625 12.1086 4.03805 12.2522 4.18165C12.3958 4.32523 12.4676 4.50343 12.4676 4.71625C12.4676 4.92906 12.3958 5.10727 12.2522 5.25085C12.1086 5.39443 11.9304 5.46622 11.7176 5.46622H5.76571C5.68877 5.46622 5.61825 5.49827 5.55413 5.56237C5.49003 5.62649 5.45798 5.69702 5.45798 5.77395V19.1585C5.45798 19.2354 5.49003 19.306 5.55413 19.3701C5.61825 19.4342 5.68877 19.4662 5.76571 19.4662H11.7176C11.9304 19.4662 12.1086 19.538 12.2522 19.6816C12.3958 19.8252 12.4676 20.0034 12.4676 20.2162C12.4676 20.429 12.3958 20.6072 12.2522 20.7508C12.1086 20.8944 11.9304 20.9662 11.7176 20.9662H5.76571ZM18.0753 13.2162H10.3041C10.0913 13.2162 9.91312 13.1444 9.76953 13.0008C9.62593 12.8572 9.55413 12.679 9.55413 12.4662C9.55413 12.2534 9.62593 12.0752 9.76953 11.9316C9.91312 11.788 10.0913 11.7162 10.3041 11.7162H18.0753L16.1522 9.79317C16.0138 9.65471 15.943 9.4858 15.9398 9.28645C15.9365 9.0871 16.0074 8.90986 16.1522 8.75472C16.2971 8.59961 16.4728 8.51948 16.6792 8.51435C16.8856 8.50921 17.0663 8.58422 17.2215 8.73935L20.3156 11.8335C20.4964 12.0143 20.5868 12.2252 20.5868 12.4662C20.5868 12.7072 20.4964 12.9181 20.3156 13.0989L17.2215 16.1931C17.0727 16.3418 16.8961 16.4152 16.6917 16.4133C16.4872 16.4114 16.3074 16.3328 16.1522 16.1777C16.0074 16.0226 15.9375 15.8444 15.9426 15.6431C15.9478 15.4418 16.0228 15.2688 16.1676 15.1239L18.0753 13.2162Z" fill="#1C1B1F"/>
</g>
</svg>
