<svg width="24" height="24" viewBox="0 0 24 24" fill="none" xmlns="http://www.w3.org/2000/svg">
<mask id="mask0_331_1112" style="mask-type:alpha" maskUnits="userSpaceOnUse" x="0" y="0" width="24" height="24">
<rect width="24" height="24" fill="#D9D9D9"/>
</mask>
<g mask="url(#mask0_331_1112)">
<path d="M11.25 19.5692V12.4307L5.00001 8.8115V15.7769C5.00001 15.8282 5.01283 15.8763 5.03848 15.9211C5.06411 15.966 5.10257 16.0045 5.15386 16.0365L11.25 19.5692ZM12.75 19.5692L18.8462 16.0365C18.8974 16.0045 18.9359 15.966 18.9615 15.9211C18.9872 15.8763 19 15.8282 19 15.7769V8.8115L12.75 12.4307V19.5692ZM11.0962 21.2057L4.40388 17.3538C4.11926 17.1897 3.89747 16.9705 3.73851 16.6961C3.57952 16.4217 3.50003 16.1205 3.50003 15.7923V8.20767C3.50003 7.87947 3.57952 7.5782 3.73851 7.30385C3.89747 7.02948 4.11926 6.81025 4.40388 6.64615L11.0962 2.79425C11.3808 2.63015 11.6821 2.5481 12 2.5481C12.318 2.5481 12.6192 2.63015 12.9039 2.79425L19.5961 6.64615C19.8807 6.81025 20.1025 7.02948 20.2615 7.30385C20.4205 7.5782 20.5 7.87947 20.5 8.20767V15.7923C20.5 16.1205 20.4205 16.4217 20.2615 16.6961C20.1025 16.9705 19.8807 17.1897 19.5961 17.3538L12.9039 21.2057C12.6192 21.3698 12.318 21.4518 12 21.4518C11.6821 21.4518 11.3808 21.3698 11.0962 21.2057ZM15.8558 8.9L18.175 7.56922L12.1539 4.08652C12.1026 4.05447 12.0513 4.03845 12 4.03845C11.9487 4.03845 11.8974 4.05447 11.8462 4.08652L9.67498 5.33652L15.8558 8.9ZM12 11.1384L14.325 9.7923L8.15001 6.22305L5.82498 7.56922L12 11.1384Z" fill="#1C1B1F"/>
</g>
</svg>
