<svg width="24" height="24" viewBox="0 0 24 24" fill="none" xmlns="http://www.w3.org/2000/svg">
<mask id="mask0_331_1136" style="mask-type:alpha" maskUnits="userSpaceOnUse" x="0" y="0" width="24" height="24">
<rect width="24" height="24" fill="#D9D9D9"/>
</mask>
<g mask="url(#mask0_331_1136)">
<path d="M10.3077 21.5C9.80901 21.5 9.38306 21.3233 9.02986 20.9701C8.67664 20.6169 8.50003 20.191 8.50003 19.6923V18.8269L5.68081 13.1942C5.61029 13.0737 5.56253 12.9423 5.53753 12.8C5.51253 12.6577 5.50003 12.5179 5.50003 12.3807V8.9615C5.50003 8.59483 5.5917 8.26631 5.77503 7.97593C5.95836 7.68554 6.20003 7.46151 6.50003 7.30383V4.35578C6.50003 3.83783 6.67503 3.39904 7.02503 3.03943C7.37503 2.67981 7.8026 2.5 8.30773 2.5H15.6923C16.1974 2.5 16.625 2.67981 16.975 3.03943C17.325 3.39904 17.5 3.83783 17.5 4.35578V7.30383C17.8 7.46151 18.0416 7.68554 18.225 7.97593C18.4083 8.26631 18.5 8.59483 18.5 8.9615V12.3807C18.5 12.5179 18.4875 12.6577 18.4625 12.8C18.4375 12.9423 18.3897 13.0737 18.3192 13.1942L15.5 18.8269V19.6923C15.5 20.191 15.3234 20.6169 14.9702 20.9701C14.617 21.3233 14.191 21.5 13.6923 21.5H10.3077ZM8.00001 7.10575H10.0577V5.48075C10.0577 5.36023 10.1013 5.25638 10.1885 5.1692C10.2756 5.08203 10.3795 5.03845 10.5 5.03845C10.6205 5.03845 10.7244 5.08203 10.8115 5.1692C10.8987 5.25638 10.9423 5.36023 10.9423 5.48075V7.10575H13.0577V5.48075C13.0577 5.36023 13.1013 5.25638 13.1885 5.1692C13.2756 5.08203 13.3795 5.03845 13.5 5.03845C13.6205 5.03845 13.7244 5.08203 13.8115 5.1692C13.8987 5.25638 13.9423 5.36023 13.9423 5.48075V7.10575H16V4.35578C16 4.25321 15.9712 4.16827 15.9135 4.10095C15.8558 4.03363 15.782 3.99998 15.6923 3.99998H8.30773C8.21798 3.99998 8.14426 4.03363 8.08656 4.10095C8.02886 4.16827 8.00001 4.25321 8.00001 4.35578V7.10575ZM10.3077 20H13.6923C13.782 20 13.8558 19.9711 13.9135 19.9134C13.9712 19.8557 14 19.782 14 19.6923V18.4423L17 12.4231V8.91343C17 8.82368 16.9712 8.74995 16.9135 8.69225C16.8558 8.63457 16.782 8.60573 16.6923 8.60573H7.30773C7.21798 8.60573 7.14426 8.63457 7.08656 8.69225C7.02886 8.74995 7.00001 8.82368 7.00001 8.91343V12.4231L10 18.4423V19.6923C10 19.782 10.0289 19.8557 10.0866 19.9134C10.1443 19.9711 10.218 20 10.3077 20Z" fill="#1C1B1F"/>
</g>
</svg>
