<svg width="24" height="25" viewBox="0 0 24 25" fill="none" xmlns="http://www.w3.org/2000/svg">
<mask id="mask0_336_8927" style="mask-type:alpha" maskUnits="userSpaceOnUse" x="-1" y="0" width="25" height="25">
<rect x="-0.000244141" y="0.738586" width="24" height="24" fill="#D9D9D9"/>
</mask>
<g mask="url(#mask0_336_8927)">
<path d="M13.5652 13.1271C14.9037 12.1886 15.9563 11.1546 16.7229 10.0251C17.4896 8.89565 17.8729 7.77514 17.8729 6.66359C17.8729 6.04692 17.7582 5.57191 17.5287 5.23856C17.2992 4.90523 16.9928 4.73856 16.6095 4.73856C15.73 4.73856 14.9774 5.40427 14.3517 6.73569C13.7261 8.06709 13.4133 9.64305 13.4133 11.4636C13.4133 11.7867 13.4255 12.086 13.4498 12.3617C13.4742 12.6373 13.5127 12.8924 13.5652 13.1271ZM4.06139 16.8655C3.92294 17.0039 3.75052 17.0716 3.54412 17.0684C3.3377 17.0651 3.16527 16.9943 3.02682 16.8559C2.88835 16.7174 2.81912 16.5428 2.81912 16.3322C2.81912 16.1215 2.88835 15.948 3.02682 15.8117L4.09989 14.7386L3.01719 13.6559C2.87874 13.5174 2.81112 13.3434 2.81432 13.1338C2.81752 12.9241 2.88835 12.7501 3.02682 12.6117C3.16527 12.4732 3.33983 12.404 3.55052 12.404C3.7612 12.404 3.9347 12.4732 4.07102 12.6117L5.14412 13.6944L6.22682 12.6117C6.36313 12.4732 6.53663 12.404 6.74732 12.404C6.958 12.404 7.13257 12.4732 7.27102 12.6117C7.40948 12.7501 7.47872 12.9247 7.47872 13.1354C7.47872 13.346 7.40948 13.5195 7.27102 13.6559L6.18832 14.7386L7.27102 15.8213C7.40948 15.9597 7.47872 16.1322 7.47872 16.3386C7.47872 16.545 7.40948 16.7174 7.27102 16.8559C7.13257 16.9943 6.958 17.0635 6.74732 17.0635C6.53663 17.0635 6.36313 16.9943 6.22682 16.8559L5.14412 15.7828L4.06139 16.8655ZM15.1325 16.7386C14.6325 16.7386 14.1822 16.6315 13.7816 16.4174C13.3809 16.2033 13.0434 15.87 12.7691 15.4174C12.4757 15.57 12.1732 15.7225 11.8616 15.8751C11.5499 16.0277 11.2332 16.177 10.9114 16.3232C10.7088 16.4078 10.5088 16.412 10.3114 16.3357C10.114 16.2594 9.97807 16.12 9.90372 15.9174C9.82935 15.7149 9.83993 15.5198 9.93547 15.3321C10.031 15.1445 10.1807 15.0069 10.3845 14.9194C10.7063 14.7732 11.0169 14.6261 11.3163 14.4781C11.6157 14.3301 11.9057 14.1772 12.1864 14.0194C12.0902 13.6527 12.0181 13.2476 11.97 12.8041C11.922 12.3606 11.8979 11.883 11.8979 11.3713C11.8979 9.00334 12.3425 7.0559 13.2316 5.52899C14.1207 4.00205 15.2467 3.23859 16.6095 3.23859C17.4248 3.23859 18.0867 3.54981 18.595 4.17226C19.1034 4.7947 19.3575 5.64565 19.3575 6.72514C19.3575 8.1264 18.8889 9.51582 17.9517 10.8934C17.0146 12.271 15.728 13.5052 14.0921 14.5963C14.2344 14.8155 14.3969 14.9799 14.5796 15.0896C14.7623 15.1992 14.962 15.254 15.1787 15.254C15.5992 15.254 16.062 15.0511 16.5672 14.6453C17.0723 14.2396 17.5512 13.686 18.0037 12.9847C18.1255 12.8091 18.2835 12.6899 18.4777 12.6271C18.672 12.5642 18.862 12.5747 19.0479 12.6585C19.2338 12.7542 19.3723 12.8976 19.4633 13.0886C19.5543 13.2796 19.5812 13.4815 19.544 13.6943C19.5043 14.0161 19.4957 14.2992 19.5181 14.5434C19.5405 14.7876 19.6056 15.0123 19.7133 15.2174C19.8351 15.1585 19.9614 15.0851 20.0921 14.9973C20.2229 14.9094 20.3691 14.7879 20.5306 14.6328C20.6857 14.4879 20.8655 14.4062 21.07 14.3876C21.2745 14.3691 21.4588 14.4232 21.623 14.5502C21.7999 14.6899 21.8934 14.8594 21.9037 15.0588C21.9139 15.2581 21.8466 15.4302 21.7017 15.5751C21.3248 15.9456 20.9537 16.2322 20.5883 16.4347C20.223 16.6373 19.8755 16.7386 19.546 16.7386C19.2216 16.7386 18.9364 16.6023 18.6902 16.3299C18.4441 16.0575 18.255 15.6853 18.1229 15.2135C17.6883 15.6943 17.2069 16.0687 16.6787 16.3366C16.1505 16.6046 15.6351 16.7386 15.1325 16.7386ZM4.35599 21.2385C4.11091 21.2385 3.90535 21.1556 3.73932 20.9898C3.5733 20.824 3.49029 20.6186 3.49029 20.3735C3.49029 20.1284 3.57319 19.9228 3.73899 19.7568C3.90479 19.5908 4.11023 19.5078 4.35532 19.5078C4.60042 19.5078 4.80598 19.5907 4.97199 19.7565C5.13803 19.9223 5.22104 20.1277 5.22104 20.3728C5.22104 20.6179 5.13814 20.8235 4.97234 20.9895C4.80654 21.1555 4.60109 21.2385 4.35599 21.2385ZM8.17329 21.2385C7.92819 21.2385 7.72263 21.1556 7.55662 20.9898C7.3906 20.824 7.30759 20.6186 7.30759 20.3735C7.30759 20.1284 7.39049 19.9228 7.55629 19.7568C7.72208 19.5908 7.92752 19.5078 8.17262 19.5078C8.41772 19.5078 8.62328 19.5907 8.78929 19.7565C8.95533 19.9223 9.03834 20.1277 9.03834 20.3728C9.03834 20.6179 8.95544 20.8235 8.78964 20.9895C8.62384 21.1555 8.41839 21.2385 8.17329 21.2385ZM11.9906 21.2385C11.7455 21.2385 11.5399 21.1556 11.3739 20.9898C11.2079 20.824 11.1249 20.6186 11.1249 20.3735C11.1249 20.1284 11.2078 19.9228 11.3736 19.7568C11.5394 19.5908 11.7448 19.5078 11.9899 19.5078C12.235 19.5078 12.4406 19.5907 12.6066 19.7565C12.7726 19.9223 12.8556 20.1277 12.8556 20.3728C12.8556 20.6179 12.7727 20.8235 12.6069 20.9895C12.4411 21.1555 12.2357 21.2385 11.9906 21.2385ZM15.8079 21.2385C15.5628 21.2385 15.3572 21.1556 15.1912 20.9898C15.0252 20.824 14.9422 20.6186 14.9422 20.3735C14.9422 20.1284 15.0251 19.9228 15.1909 19.7568C15.3567 19.5908 15.5621 19.5078 15.8072 19.5078C16.0523 19.5078 16.2579 19.5907 16.4239 19.7565C16.5899 19.9223 16.6729 20.1277 16.6729 20.3728C16.6729 20.6179 16.59 20.8235 16.4242 20.9895C16.2584 21.1555 16.053 21.2385 15.8079 21.2385ZM19.6252 21.2385C19.3801 21.2385 19.1745 21.1556 19.0085 20.9898C18.8425 20.824 18.7595 20.6186 18.7595 20.3735C18.7595 20.1284 18.8424 19.9228 19.0082 19.7568C19.174 19.5908 19.3794 19.5078 19.6245 19.5078C19.8696 19.5078 20.0752 19.5907 20.2412 19.7565C20.4072 19.9223 20.4902 20.1277 20.4902 20.3728C20.4902 20.6179 20.4073 20.8235 20.2415 20.9895C20.0757 21.1555 19.8703 21.2385 19.6252 21.2385Z" fill="#1C1B1F"/>
</g>
</svg>
