<svg width="24" height="24" viewBox="0 0 24 24" fill="none" xmlns="http://www.w3.org/2000/svg">
<mask id="mask0_336_8915" style="mask-type:alpha" maskUnits="userSpaceOnUse" x="0" y="0" width="24" height="24">
<rect width="24" height="24" fill="#D9D9D9"/>
</mask>
<g mask="url(#mask0_336_8915)">
<path d="M6.99998 17.5C5.47221 17.5 4.17361 16.9655 3.10418 15.8965C2.03472 14.8275 1.5 13.5294 1.5 12.0023C1.5 10.4751 2.03472 9.17628 3.10418 8.10578C4.17361 7.03526 5.47221 6.5 6.99998 6.5C8.03588 6.5 8.99613 6.775 9.88073 7.325C10.7653 7.875 11.4359 8.6 11.8923 9.5H20.6923C21.1894 9.5 21.6149 9.67701 21.9689 10.031C22.3229 10.385 22.5 10.8106 22.5 11.3077V12.6923C22.5 13.1894 22.3229 13.6149 21.9689 13.9689C21.6149 14.3229 21.1894 14.5 20.6923 14.5H20.5V15.6923C20.5 16.1894 20.3229 16.6149 19.9689 16.9689C19.6149 17.3229 19.1894 17.5 18.6923 17.5H17.3077C16.8106 17.5 16.385 17.3229 16.031 16.9689C15.677 16.6149 15.5 16.1894 15.5 15.6923V14.5H11.8923C11.4359 15.4 10.7653 16.125 9.88073 16.675C8.99613 17.225 8.03588 17.5 6.99998 17.5ZM6.99998 16C8.09998 16 8.98331 15.6625 9.64998 14.9875C10.3166 14.3125 10.7166 13.65 10.85 13H17V15.6923C17 15.782 17.0288 15.8557 17.0865 15.9134C17.1442 15.9711 17.218 16 17.3077 16H18.6923C18.782 16 18.8557 15.9711 18.9134 15.9134C18.9711 15.8557 19 15.782 19 15.6923V13H20.6923C20.782 13 20.8557 12.9711 20.9134 12.9134C20.9711 12.8557 21 12.782 21 12.6923V11.3077C21 11.218 20.9711 11.1442 20.9134 11.0865C20.8557 11.0288 20.782 11 20.6923 11H10.85C10.7166 10.35 10.3166 9.68748 9.64998 9.01248C8.98331 8.33748 8.09998 7.99998 6.99998 7.99998C5.89998 7.99998 4.95831 8.39164 4.17498 9.17498C3.39164 9.95831 2.99998 10.9 2.99998 12C2.99998 13.1 3.39164 14.0416 4.17498 14.825C4.95831 15.6083 5.89998 16 6.99998 16ZM6.99998 13.6153C7.44419 13.6153 7.82448 13.4572 8.14083 13.1408C8.45716 12.8245 8.61533 12.4442 8.61533 12C8.61533 11.5558 8.45716 11.1755 8.14083 10.8591C7.82448 10.5428 7.44419 10.3846 6.99998 10.3846C6.55576 10.3846 6.17548 10.5428 5.85913 10.8591C5.54279 11.1755 5.38463 11.5558 5.38463 12C5.38463 12.4442 5.54279 12.8245 5.85913 13.1408C6.17548 13.4572 6.55576 13.6153 6.99998 13.6153Z" fill="#1C1B1F"/>
</g>
</svg>
